<mxfile host="app.diagrams.net" modified="2020-09-30T02:03:15.743Z" agent="5.0 (Macintosh; Intel Mac OS X 10_15_6) AppleWebKit/537.36 (KHTML, like Gecko) Chrome/85.0.4183.121 Safari/537.36" etag="Kdpo_t4bSUyEgMFEgDCB" version="13.7.6" type="github">
  <diagram id="L34AlD8BXApTD8W4s0No" name="Page-1">
    <mxGraphModel dx="2101" dy="691" grid="1" gridSize="10" guides="1" tooltips="1" connect="1" arrows="1" fold="1" page="1" pageScale="1" pageWidth="850" pageHeight="1100" math="0" shadow="0">
      <root>
        <mxCell id="0" />
        <mxCell id="1" parent="0" />
        <mxCell id="E-zx71uZVMrBbEnguRiy-8" value="&lt;span style=&quot;color: rgb(29 , 28 , 29) ; font-family: , &amp;#34;applelogo&amp;#34; , sans-serif ; font-size: 15px ; background-color: rgb(248 , 248 , 248)&quot;&gt;continents (continent_id, name)&lt;/span&gt;&lt;br style=&quot;box-sizing: inherit ; color: rgb(29 , 28 , 29) ; font-family: , &amp;#34;applelogo&amp;#34; , sans-serif ; font-size: 15px ; background-color: rgb(248 , 248 , 248)&quot;&gt;&lt;span style=&quot;color: rgb(29 , 28 , 29) ; font-family: , &amp;#34;applelogo&amp;#34; , sans-serif ; font-size: 15px ; background-color: rgb(248 , 248 , 248)&quot;&gt;regions (region_id, name, continent_id)&lt;/span&gt;&lt;br style=&quot;box-sizing: inherit ; color: rgb(29 , 28 , 29) ; font-family: , &amp;#34;applelogo&amp;#34; , sans-serif ; font-size: 15px ; background-color: rgb(248 , 248 , 248)&quot;&gt;&lt;span style=&quot;color: rgb(29 , 28 , 29) ; font-family: , &amp;#34;applelogo&amp;#34; , sans-serif ; font-size: 15px ; background-color: rgb(248 , 248 , 248)&quot;&gt;countries (country_id, name, area, national_day,&lt;/span&gt;&lt;br style=&quot;box-sizing: inherit ; color: rgb(29 , 28 , 29) ; font-family: , &amp;#34;applelogo&amp;#34; , sans-serif ; font-size: 15px ; background-color: rgb(248 , 248 , 248)&quot;&gt;&lt;span style=&quot;color: rgb(29 , 28 , 29) ; font-family: , &amp;#34;applelogo&amp;#34; , sans-serif ; font-size: 15px ; background-color: rgb(248 , 248 , 248)&quot;&gt;country_code2, country_code3, region_id)&lt;/span&gt;&lt;br style=&quot;box-sizing: inherit ; color: rgb(29 , 28 , 29) ; font-family: , &amp;#34;applelogo&amp;#34; , sans-serif ; font-size: 15px ; background-color: rgb(248 , 248 , 248)&quot;&gt;&lt;span style=&quot;color: rgb(29 , 28 , 29) ; font-family: , &amp;#34;applelogo&amp;#34; , sans-serif ; font-size: 15px ; background-color: rgb(248 , 248 , 248)&quot;&gt;languages (language_id, language)&lt;/span&gt;&lt;br style=&quot;box-sizing: inherit ; color: rgb(29 , 28 , 29) ; font-family: , &amp;#34;applelogo&amp;#34; , sans-serif ; font-size: 15px ; background-color: rgb(248 , 248 , 248)&quot;&gt;&lt;span style=&quot;color: rgb(29 , 28 , 29) ; font-family: , &amp;#34;applelogo&amp;#34; , sans-serif ; font-size: 15px ; background-color: rgb(248 , 248 , 248)&quot;&gt;country_languages (country_id, language_id, official)&lt;/span&gt;&lt;br style=&quot;box-sizing: inherit ; color: rgb(29 , 28 , 29) ; font-family: , &amp;#34;applelogo&amp;#34; , sans-serif ; font-size: 15px ; background-color: rgb(248 , 248 , 248)&quot;&gt;&lt;span style=&quot;color: rgb(29 , 28 , 29) ; font-family: , &amp;#34;applelogo&amp;#34; , sans-serif ; font-size: 15px ; background-color: rgb(248 , 248 , 248)&quot;&gt;country_stats (country_id, year, population, gdp)&lt;/span&gt;" style="text;html=1;align=left;verticalAlign=middle;resizable=0;points=[];autosize=1;" vertex="1" parent="1">
          <mxGeometry x="-25" y="95" width="370" height="110" as="geometry" />
        </mxCell>
        <mxCell id="E-zx71uZVMrBbEnguRiy-73" value="" style="edgeStyle=entityRelationEdgeStyle;fontSize=12;html=1;endArrow=ERoneToMany;startArrow=ERmandOne;exitX=1;exitY=0.5;exitDx=0;exitDy=0;entryX=0;entryY=0.5;entryDx=0;entryDy=0;" edge="1" parent="1" source="E-zx71uZVMrBbEnguRiy-23" target="E-zx71uZVMrBbEnguRiy-104">
          <mxGeometry width="100" height="100" relative="1" as="geometry">
            <mxPoint x="220" y="660" as="sourcePoint" />
            <mxPoint x="320" y="560" as="targetPoint" />
          </mxGeometry>
        </mxCell>
        <mxCell id="E-zx71uZVMrBbEnguRiy-100" value="regions" style="shape=table;startSize=30;container=1;collapsible=1;childLayout=tableLayout;fixedRows=1;rowLines=0;fontStyle=1;align=center;resizeLast=1;" vertex="1" parent="1">
          <mxGeometry x="-60" y="310" width="180" height="160" as="geometry" />
        </mxCell>
        <mxCell id="E-zx71uZVMrBbEnguRiy-101" value="" style="shape=partialRectangle;collapsible=0;dropTarget=0;pointerEvents=0;fillColor=none;top=0;left=0;bottom=0;right=0;points=[[0,0.5],[1,0.5]];portConstraint=eastwest;" vertex="1" parent="E-zx71uZVMrBbEnguRiy-100">
          <mxGeometry y="30" width="180" height="30" as="geometry" />
        </mxCell>
        <mxCell id="E-zx71uZVMrBbEnguRiy-102" value="PK" style="shape=partialRectangle;connectable=0;fillColor=none;top=0;left=0;bottom=0;right=0;fontStyle=1;overflow=hidden;" vertex="1" parent="E-zx71uZVMrBbEnguRiy-101">
          <mxGeometry width="60" height="30" as="geometry" />
        </mxCell>
        <mxCell id="E-zx71uZVMrBbEnguRiy-103" value="region_id" style="shape=partialRectangle;connectable=0;fillColor=none;top=0;left=0;bottom=0;right=0;align=left;spacingLeft=6;fontStyle=5;overflow=hidden;" vertex="1" parent="E-zx71uZVMrBbEnguRiy-101">
          <mxGeometry x="60" width="120" height="30" as="geometry" />
        </mxCell>
        <mxCell id="E-zx71uZVMrBbEnguRiy-104" value="" style="shape=partialRectangle;collapsible=0;dropTarget=0;pointerEvents=0;fillColor=none;top=0;left=0;bottom=1;right=0;points=[[0,0.5],[1,0.5]];portConstraint=eastwest;" vertex="1" parent="E-zx71uZVMrBbEnguRiy-100">
          <mxGeometry y="60" width="180" height="30" as="geometry" />
        </mxCell>
        <mxCell id="E-zx71uZVMrBbEnguRiy-105" value="FK" style="shape=partialRectangle;connectable=0;fillColor=none;top=0;left=0;bottom=0;right=0;fontStyle=1;overflow=hidden;" vertex="1" parent="E-zx71uZVMrBbEnguRiy-104">
          <mxGeometry width="60" height="30" as="geometry" />
        </mxCell>
        <mxCell id="E-zx71uZVMrBbEnguRiy-106" value="continent_id" style="shape=partialRectangle;connectable=0;fillColor=none;top=0;left=0;bottom=0;right=0;align=left;spacingLeft=6;fontStyle=5;overflow=hidden;" vertex="1" parent="E-zx71uZVMrBbEnguRiy-104">
          <mxGeometry x="60" width="120" height="30" as="geometry" />
        </mxCell>
        <mxCell id="E-zx71uZVMrBbEnguRiy-107" value="" style="shape=partialRectangle;collapsible=0;dropTarget=0;pointerEvents=0;fillColor=none;top=0;left=0;bottom=0;right=0;points=[[0,0.5],[1,0.5]];portConstraint=eastwest;" vertex="1" parent="E-zx71uZVMrBbEnguRiy-100">
          <mxGeometry y="90" width="180" height="30" as="geometry" />
        </mxCell>
        <mxCell id="E-zx71uZVMrBbEnguRiy-108" value="" style="shape=partialRectangle;connectable=0;fillColor=none;top=0;left=0;bottom=0;right=0;editable=1;overflow=hidden;" vertex="1" parent="E-zx71uZVMrBbEnguRiy-107">
          <mxGeometry width="60" height="30" as="geometry" />
        </mxCell>
        <mxCell id="E-zx71uZVMrBbEnguRiy-109" value="Row 3" style="shape=partialRectangle;connectable=0;fillColor=none;top=0;left=0;bottom=0;right=0;align=left;spacingLeft=6;overflow=hidden;" vertex="1" parent="E-zx71uZVMrBbEnguRiy-107">
          <mxGeometry x="60" width="120" height="30" as="geometry" />
        </mxCell>
        <mxCell id="E-zx71uZVMrBbEnguRiy-110" value="" style="shape=partialRectangle;collapsible=0;dropTarget=0;pointerEvents=0;fillColor=none;top=0;left=0;bottom=0;right=0;points=[[0,0.5],[1,0.5]];portConstraint=eastwest;" vertex="1" parent="E-zx71uZVMrBbEnguRiy-100">
          <mxGeometry y="120" width="180" height="30" as="geometry" />
        </mxCell>
        <mxCell id="E-zx71uZVMrBbEnguRiy-111" value="" style="shape=partialRectangle;connectable=0;fillColor=none;top=0;left=0;bottom=0;right=0;editable=1;overflow=hidden;" vertex="1" parent="E-zx71uZVMrBbEnguRiy-110">
          <mxGeometry width="60" height="30" as="geometry" />
        </mxCell>
        <mxCell id="E-zx71uZVMrBbEnguRiy-112" value="Row 4" style="shape=partialRectangle;connectable=0;fillColor=none;top=0;left=0;bottom=0;right=0;align=left;spacingLeft=6;overflow=hidden;" vertex="1" parent="E-zx71uZVMrBbEnguRiy-110">
          <mxGeometry x="60" width="120" height="30" as="geometry" />
        </mxCell>
        <mxCell id="E-zx71uZVMrBbEnguRiy-87" value="countries" style="shape=table;startSize=30;container=1;collapsible=1;childLayout=tableLayout;fixedRows=1;rowLines=0;fontStyle=1;align=center;resizeLast=1;" vertex="1" parent="1">
          <mxGeometry x="200" y="290" width="180" height="250" as="geometry" />
        </mxCell>
        <mxCell id="E-zx71uZVMrBbEnguRiy-88" value="" style="shape=partialRectangle;collapsible=0;dropTarget=0;pointerEvents=0;fillColor=none;top=0;left=0;bottom=0;right=0;points=[[0,0.5],[1,0.5]];portConstraint=eastwest;" vertex="1" parent="E-zx71uZVMrBbEnguRiy-87">
          <mxGeometry y="30" width="180" height="30" as="geometry" />
        </mxCell>
        <mxCell id="E-zx71uZVMrBbEnguRiy-89" value="PK" style="shape=partialRectangle;connectable=0;fillColor=none;top=0;left=0;bottom=0;right=0;fontStyle=1;overflow=hidden;" vertex="1" parent="E-zx71uZVMrBbEnguRiy-88">
          <mxGeometry width="60" height="30" as="geometry" />
        </mxCell>
        <mxCell id="E-zx71uZVMrBbEnguRiy-90" value="country_id" style="shape=partialRectangle;connectable=0;fillColor=none;top=0;left=0;bottom=0;right=0;align=left;spacingLeft=6;fontStyle=5;overflow=hidden;" vertex="1" parent="E-zx71uZVMrBbEnguRiy-88">
          <mxGeometry x="60" width="120" height="30" as="geometry" />
        </mxCell>
        <mxCell id="E-zx71uZVMrBbEnguRiy-91" value="" style="shape=partialRectangle;collapsible=0;dropTarget=0;pointerEvents=0;fillColor=none;top=0;left=0;bottom=1;right=0;points=[[0,0.5],[1,0.5]];portConstraint=eastwest;" vertex="1" parent="E-zx71uZVMrBbEnguRiy-87">
          <mxGeometry y="60" width="180" height="30" as="geometry" />
        </mxCell>
        <mxCell id="E-zx71uZVMrBbEnguRiy-92" value="FK" style="shape=partialRectangle;connectable=0;fillColor=none;top=0;left=0;bottom=0;right=0;fontStyle=1;overflow=hidden;" vertex="1" parent="E-zx71uZVMrBbEnguRiy-91">
          <mxGeometry width="60" height="30" as="geometry" />
        </mxCell>
        <mxCell id="E-zx71uZVMrBbEnguRiy-93" value="region_id_id" style="shape=partialRectangle;connectable=0;fillColor=none;top=0;left=0;bottom=0;right=0;align=left;spacingLeft=6;fontStyle=5;overflow=hidden;" vertex="1" parent="E-zx71uZVMrBbEnguRiy-91">
          <mxGeometry x="60" width="120" height="30" as="geometry" />
        </mxCell>
        <mxCell id="E-zx71uZVMrBbEnguRiy-94" value="" style="shape=partialRectangle;collapsible=0;dropTarget=0;pointerEvents=0;fillColor=none;top=0;left=0;bottom=0;right=0;points=[[0,0.5],[1,0.5]];portConstraint=eastwest;" vertex="1" parent="E-zx71uZVMrBbEnguRiy-87">
          <mxGeometry y="90" width="180" height="30" as="geometry" />
        </mxCell>
        <mxCell id="E-zx71uZVMrBbEnguRiy-95" value="" style="shape=partialRectangle;connectable=0;fillColor=none;top=0;left=0;bottom=0;right=0;editable=1;overflow=hidden;" vertex="1" parent="E-zx71uZVMrBbEnguRiy-94">
          <mxGeometry width="60" height="30" as="geometry" />
        </mxCell>
        <mxCell id="E-zx71uZVMrBbEnguRiy-96" value="name" style="shape=partialRectangle;connectable=0;fillColor=none;top=0;left=0;bottom=0;right=0;align=left;spacingLeft=6;overflow=hidden;" vertex="1" parent="E-zx71uZVMrBbEnguRiy-94">
          <mxGeometry x="60" width="120" height="30" as="geometry" />
        </mxCell>
        <mxCell id="E-zx71uZVMrBbEnguRiy-97" value="" style="shape=partialRectangle;collapsible=0;dropTarget=0;pointerEvents=0;fillColor=none;top=0;left=0;bottom=0;right=0;points=[[0,0.5],[1,0.5]];portConstraint=eastwest;" vertex="1" parent="E-zx71uZVMrBbEnguRiy-87">
          <mxGeometry y="120" width="180" height="30" as="geometry" />
        </mxCell>
        <mxCell id="E-zx71uZVMrBbEnguRiy-98" value="" style="shape=partialRectangle;connectable=0;fillColor=none;top=0;left=0;bottom=0;right=0;editable=1;overflow=hidden;" vertex="1" parent="E-zx71uZVMrBbEnguRiy-97">
          <mxGeometry width="60" height="30" as="geometry" />
        </mxCell>
        <mxCell id="E-zx71uZVMrBbEnguRiy-99" value="area" style="shape=partialRectangle;connectable=0;fillColor=none;top=0;left=0;bottom=0;right=0;align=left;spacingLeft=6;overflow=hidden;" vertex="1" parent="E-zx71uZVMrBbEnguRiy-97">
          <mxGeometry x="60" width="120" height="30" as="geometry" />
        </mxCell>
        <mxCell id="E-zx71uZVMrBbEnguRiy-114" value="" style="shape=partialRectangle;collapsible=0;dropTarget=0;pointerEvents=0;fillColor=none;top=0;left=0;bottom=0;right=0;points=[[0,0.5],[1,0.5]];portConstraint=eastwest;" vertex="1" parent="E-zx71uZVMrBbEnguRiy-87">
          <mxGeometry y="150" width="180" height="30" as="geometry" />
        </mxCell>
        <mxCell id="E-zx71uZVMrBbEnguRiy-115" value="" style="shape=partialRectangle;connectable=0;fillColor=none;top=0;left=0;bottom=0;right=0;editable=1;overflow=hidden;" vertex="1" parent="E-zx71uZVMrBbEnguRiy-114">
          <mxGeometry width="60" height="30" as="geometry" />
        </mxCell>
        <mxCell id="E-zx71uZVMrBbEnguRiy-116" value="national_day" style="shape=partialRectangle;connectable=0;fillColor=none;top=0;left=0;bottom=0;right=0;align=left;spacingLeft=6;overflow=hidden;" vertex="1" parent="E-zx71uZVMrBbEnguRiy-114">
          <mxGeometry x="60" width="120" height="30" as="geometry" />
        </mxCell>
        <mxCell id="E-zx71uZVMrBbEnguRiy-117" value="" style="shape=partialRectangle;collapsible=0;dropTarget=0;pointerEvents=0;fillColor=none;top=0;left=0;bottom=0;right=0;points=[[0,0.5],[1,0.5]];portConstraint=eastwest;" vertex="1" parent="E-zx71uZVMrBbEnguRiy-87">
          <mxGeometry y="180" width="180" height="30" as="geometry" />
        </mxCell>
        <mxCell id="E-zx71uZVMrBbEnguRiy-118" value="" style="shape=partialRectangle;connectable=0;fillColor=none;top=0;left=0;bottom=0;right=0;editable=1;overflow=hidden;" vertex="1" parent="E-zx71uZVMrBbEnguRiy-117">
          <mxGeometry width="60" height="30" as="geometry" />
        </mxCell>
        <mxCell id="E-zx71uZVMrBbEnguRiy-119" value="country_code2" style="shape=partialRectangle;connectable=0;fillColor=none;top=0;left=0;bottom=0;right=0;align=left;spacingLeft=6;overflow=hidden;" vertex="1" parent="E-zx71uZVMrBbEnguRiy-117">
          <mxGeometry x="60" width="120" height="30" as="geometry" />
        </mxCell>
        <mxCell id="E-zx71uZVMrBbEnguRiy-120" value="" style="shape=partialRectangle;collapsible=0;dropTarget=0;pointerEvents=0;fillColor=none;top=0;left=0;bottom=0;right=0;points=[[0,0.5],[1,0.5]];portConstraint=eastwest;" vertex="1" parent="E-zx71uZVMrBbEnguRiy-87">
          <mxGeometry y="210" width="180" height="30" as="geometry" />
        </mxCell>
        <mxCell id="E-zx71uZVMrBbEnguRiy-121" value="" style="shape=partialRectangle;connectable=0;fillColor=none;top=0;left=0;bottom=0;right=0;editable=1;overflow=hidden;" vertex="1" parent="E-zx71uZVMrBbEnguRiy-120">
          <mxGeometry width="60" height="30" as="geometry" />
        </mxCell>
        <mxCell id="E-zx71uZVMrBbEnguRiy-122" value="country_code3" style="shape=partialRectangle;connectable=0;fillColor=none;top=0;left=0;bottom=0;right=0;align=left;spacingLeft=6;overflow=hidden;" vertex="1" parent="E-zx71uZVMrBbEnguRiy-120">
          <mxGeometry x="60" width="120" height="30" as="geometry" />
        </mxCell>
        <mxCell id="E-zx71uZVMrBbEnguRiy-127" value="country_stats" style="shape=table;startSize=30;container=1;collapsible=1;childLayout=tableLayout;fixedRows=1;rowLines=0;fontStyle=1;align=center;resizeLast=1;" vertex="1" parent="1">
          <mxGeometry x="500" y="290" width="180" height="160" as="geometry" />
        </mxCell>
        <mxCell id="E-zx71uZVMrBbEnguRiy-128" value="" style="shape=partialRectangle;collapsible=0;dropTarget=0;pointerEvents=0;fillColor=none;top=0;left=0;bottom=0;right=0;points=[[0,0.5],[1,0.5]];portConstraint=eastwest;" vertex="1" parent="E-zx71uZVMrBbEnguRiy-127">
          <mxGeometry y="30" width="180" height="30" as="geometry" />
        </mxCell>
        <mxCell id="E-zx71uZVMrBbEnguRiy-129" value="PK, FK" style="shape=partialRectangle;connectable=0;fillColor=none;top=0;left=0;bottom=0;right=0;fontStyle=1;overflow=hidden;" vertex="1" parent="E-zx71uZVMrBbEnguRiy-128">
          <mxGeometry width="60" height="30" as="geometry" />
        </mxCell>
        <mxCell id="E-zx71uZVMrBbEnguRiy-130" value="country_id" style="shape=partialRectangle;connectable=0;fillColor=none;top=0;left=0;bottom=0;right=0;align=left;spacingLeft=6;fontStyle=5;overflow=hidden;" vertex="1" parent="E-zx71uZVMrBbEnguRiy-128">
          <mxGeometry x="60" width="120" height="30" as="geometry" />
        </mxCell>
        <mxCell id="E-zx71uZVMrBbEnguRiy-131" value="" style="shape=partialRectangle;collapsible=0;dropTarget=0;pointerEvents=0;fillColor=none;top=0;left=0;bottom=1;right=0;points=[[0,0.5],[1,0.5]];portConstraint=eastwest;" vertex="1" parent="E-zx71uZVMrBbEnguRiy-127">
          <mxGeometry y="60" width="180" height="30" as="geometry" />
        </mxCell>
        <mxCell id="E-zx71uZVMrBbEnguRiy-132" value="PK" style="shape=partialRectangle;connectable=0;fillColor=none;top=0;left=0;bottom=0;right=0;fontStyle=1;overflow=hidden;" vertex="1" parent="E-zx71uZVMrBbEnguRiy-131">
          <mxGeometry width="60" height="30" as="geometry" />
        </mxCell>
        <mxCell id="E-zx71uZVMrBbEnguRiy-133" value="year" style="shape=partialRectangle;connectable=0;fillColor=none;top=0;left=0;bottom=0;right=0;align=left;spacingLeft=6;fontStyle=5;overflow=hidden;" vertex="1" parent="E-zx71uZVMrBbEnguRiy-131">
          <mxGeometry x="60" width="120" height="30" as="geometry" />
        </mxCell>
        <mxCell id="E-zx71uZVMrBbEnguRiy-134" value="" style="shape=partialRectangle;collapsible=0;dropTarget=0;pointerEvents=0;fillColor=none;top=0;left=0;bottom=0;right=0;points=[[0,0.5],[1,0.5]];portConstraint=eastwest;" vertex="1" parent="E-zx71uZVMrBbEnguRiy-127">
          <mxGeometry y="90" width="180" height="30" as="geometry" />
        </mxCell>
        <mxCell id="E-zx71uZVMrBbEnguRiy-135" value="" style="shape=partialRectangle;connectable=0;fillColor=none;top=0;left=0;bottom=0;right=0;editable=1;overflow=hidden;" vertex="1" parent="E-zx71uZVMrBbEnguRiy-134">
          <mxGeometry width="60" height="30" as="geometry" />
        </mxCell>
        <mxCell id="E-zx71uZVMrBbEnguRiy-136" value="population" style="shape=partialRectangle;connectable=0;fillColor=none;top=0;left=0;bottom=0;right=0;align=left;spacingLeft=6;overflow=hidden;" vertex="1" parent="E-zx71uZVMrBbEnguRiy-134">
          <mxGeometry x="60" width="120" height="30" as="geometry" />
        </mxCell>
        <mxCell id="E-zx71uZVMrBbEnguRiy-137" value="" style="shape=partialRectangle;collapsible=0;dropTarget=0;pointerEvents=0;fillColor=none;top=0;left=0;bottom=0;right=0;points=[[0,0.5],[1,0.5]];portConstraint=eastwest;" vertex="1" parent="E-zx71uZVMrBbEnguRiy-127">
          <mxGeometry y="120" width="180" height="30" as="geometry" />
        </mxCell>
        <mxCell id="E-zx71uZVMrBbEnguRiy-138" value="" style="shape=partialRectangle;connectable=0;fillColor=none;top=0;left=0;bottom=0;right=0;editable=1;overflow=hidden;" vertex="1" parent="E-zx71uZVMrBbEnguRiy-137">
          <mxGeometry width="60" height="30" as="geometry" />
        </mxCell>
        <mxCell id="E-zx71uZVMrBbEnguRiy-139" value="gdp" style="shape=partialRectangle;connectable=0;fillColor=none;top=0;left=0;bottom=0;right=0;align=left;spacingLeft=6;overflow=hidden;" vertex="1" parent="E-zx71uZVMrBbEnguRiy-137">
          <mxGeometry x="60" width="120" height="30" as="geometry" />
        </mxCell>
        <mxCell id="E-zx71uZVMrBbEnguRiy-149" value="" style="edgeStyle=entityRelationEdgeStyle;fontSize=12;html=1;endArrow=ERoneToMany;startArrow=ERmandOne;exitX=1;exitY=0.5;exitDx=0;exitDy=0;entryX=0;entryY=0.5;entryDx=0;entryDy=0;" edge="1" parent="1" source="E-zx71uZVMrBbEnguRiy-101" target="E-zx71uZVMrBbEnguRiy-91">
          <mxGeometry width="100" height="100" relative="1" as="geometry">
            <mxPoint x="-180" y="415" as="sourcePoint" />
            <mxPoint x="-50" y="395" as="targetPoint" />
          </mxGeometry>
        </mxCell>
        <mxCell id="E-zx71uZVMrBbEnguRiy-150" value="" style="edgeStyle=entityRelationEdgeStyle;fontSize=12;html=1;endArrow=ERoneToMany;startArrow=ERmandOne;exitX=1;exitY=0.5;exitDx=0;exitDy=0;entryX=0;entryY=0.5;entryDx=0;entryDy=0;" edge="1" parent="1" source="E-zx71uZVMrBbEnguRiy-88" target="E-zx71uZVMrBbEnguRiy-128">
          <mxGeometry width="100" height="100" relative="1" as="geometry">
            <mxPoint x="390" y="620" as="sourcePoint" />
            <mxPoint x="520" y="600" as="targetPoint" />
          </mxGeometry>
        </mxCell>
        <mxCell id="E-zx71uZVMrBbEnguRiy-151" value="country_languages" style="shape=table;startSize=30;container=1;collapsible=1;childLayout=tableLayout;fixedRows=1;rowLines=0;fontStyle=1;align=center;resizeLast=1;" vertex="1" parent="1">
          <mxGeometry x="530" y="530" width="180" height="130" as="geometry" />
        </mxCell>
        <mxCell id="E-zx71uZVMrBbEnguRiy-152" value="" style="shape=partialRectangle;collapsible=0;dropTarget=0;pointerEvents=0;fillColor=none;top=0;left=0;bottom=0;right=0;points=[[0,0.5],[1,0.5]];portConstraint=eastwest;" vertex="1" parent="E-zx71uZVMrBbEnguRiy-151">
          <mxGeometry y="30" width="180" height="30" as="geometry" />
        </mxCell>
        <mxCell id="E-zx71uZVMrBbEnguRiy-153" value="PK, FK1" style="shape=partialRectangle;connectable=0;fillColor=none;top=0;left=0;bottom=0;right=0;fontStyle=1;overflow=hidden;" vertex="1" parent="E-zx71uZVMrBbEnguRiy-152">
          <mxGeometry width="60" height="30" as="geometry" />
        </mxCell>
        <mxCell id="E-zx71uZVMrBbEnguRiy-154" value="country_id" style="shape=partialRectangle;connectable=0;fillColor=none;top=0;left=0;bottom=0;right=0;align=left;spacingLeft=6;fontStyle=5;overflow=hidden;" vertex="1" parent="E-zx71uZVMrBbEnguRiy-152">
          <mxGeometry x="60" width="120" height="30" as="geometry" />
        </mxCell>
        <mxCell id="E-zx71uZVMrBbEnguRiy-155" value="" style="shape=partialRectangle;collapsible=0;dropTarget=0;pointerEvents=0;fillColor=none;top=0;left=0;bottom=1;right=0;points=[[0,0.5],[1,0.5]];portConstraint=eastwest;" vertex="1" parent="E-zx71uZVMrBbEnguRiy-151">
          <mxGeometry y="60" width="180" height="30" as="geometry" />
        </mxCell>
        <mxCell id="E-zx71uZVMrBbEnguRiy-156" value="PK,FK2" style="shape=partialRectangle;connectable=0;fillColor=none;top=0;left=0;bottom=0;right=0;fontStyle=1;overflow=hidden;" vertex="1" parent="E-zx71uZVMrBbEnguRiy-155">
          <mxGeometry width="60" height="30" as="geometry" />
        </mxCell>
        <mxCell id="E-zx71uZVMrBbEnguRiy-157" value="language_id" style="shape=partialRectangle;connectable=0;fillColor=none;top=0;left=0;bottom=0;right=0;align=left;spacingLeft=6;fontStyle=5;overflow=hidden;" vertex="1" parent="E-zx71uZVMrBbEnguRiy-155">
          <mxGeometry x="60" width="120" height="30" as="geometry" />
        </mxCell>
        <mxCell id="E-zx71uZVMrBbEnguRiy-158" value="" style="shape=partialRectangle;collapsible=0;dropTarget=0;pointerEvents=0;fillColor=none;top=0;left=0;bottom=0;right=0;points=[[0,0.5],[1,0.5]];portConstraint=eastwest;" vertex="1" parent="E-zx71uZVMrBbEnguRiy-151">
          <mxGeometry y="90" width="180" height="30" as="geometry" />
        </mxCell>
        <mxCell id="E-zx71uZVMrBbEnguRiy-159" value="" style="shape=partialRectangle;connectable=0;fillColor=none;top=0;left=0;bottom=0;right=0;editable=1;overflow=hidden;" vertex="1" parent="E-zx71uZVMrBbEnguRiy-158">
          <mxGeometry width="60" height="30" as="geometry" />
        </mxCell>
        <mxCell id="E-zx71uZVMrBbEnguRiy-160" value="official" style="shape=partialRectangle;connectable=0;fillColor=none;top=0;left=0;bottom=0;right=0;align=left;spacingLeft=6;overflow=hidden;" vertex="1" parent="E-zx71uZVMrBbEnguRiy-158">
          <mxGeometry x="60" width="120" height="30" as="geometry" />
        </mxCell>
        <mxCell id="E-zx71uZVMrBbEnguRiy-164" value="" style="edgeStyle=entityRelationEdgeStyle;fontSize=12;html=1;endArrow=ERoneToMany;startArrow=ERmandOne;exitX=1;exitY=0.5;exitDx=0;exitDy=0;entryX=0;entryY=0.5;entryDx=0;entryDy=0;" edge="1" parent="1" source="E-zx71uZVMrBbEnguRiy-88" target="E-zx71uZVMrBbEnguRiy-152">
          <mxGeometry width="100" height="100" relative="1" as="geometry">
            <mxPoint x="380" y="650" as="sourcePoint" />
            <mxPoint x="500" y="650" as="targetPoint" />
          </mxGeometry>
        </mxCell>
        <mxCell id="E-zx71uZVMrBbEnguRiy-175" value="" style="edgeStyle=entityRelationEdgeStyle;fontSize=12;html=1;endArrow=ERoneToMany;startArrow=ERmandOne;exitX=1;exitY=0.5;exitDx=0;exitDy=0;entryX=0;entryY=0.5;entryDx=0;entryDy=0;" edge="1" parent="1" source="E-zx71uZVMrBbEnguRiy-177" target="E-zx71uZVMrBbEnguRiy-155">
          <mxGeometry width="100" height="100" relative="1" as="geometry">
            <mxPoint x="450" y="740" as="sourcePoint" />
            <mxPoint x="570" y="740" as="targetPoint" />
          </mxGeometry>
        </mxCell>
        <mxCell id="E-zx71uZVMrBbEnguRiy-176" value="languages" style="shape=table;startSize=30;container=1;collapsible=1;childLayout=tableLayout;fixedRows=1;rowLines=0;fontStyle=1;align=center;resizeLast=1;" vertex="1" parent="1">
          <mxGeometry x="190" y="660" width="180" height="160" as="geometry" />
        </mxCell>
        <mxCell id="E-zx71uZVMrBbEnguRiy-177" value="" style="shape=partialRectangle;collapsible=0;dropTarget=0;pointerEvents=0;fillColor=none;top=0;left=0;bottom=1;right=0;points=[[0,0.5],[1,0.5]];portConstraint=eastwest;" vertex="1" parent="E-zx71uZVMrBbEnguRiy-176">
          <mxGeometry y="30" width="180" height="30" as="geometry" />
        </mxCell>
        <mxCell id="E-zx71uZVMrBbEnguRiy-178" value="PK" style="shape=partialRectangle;connectable=0;fillColor=none;top=0;left=0;bottom=0;right=0;fontStyle=1;overflow=hidden;" vertex="1" parent="E-zx71uZVMrBbEnguRiy-177">
          <mxGeometry width="30" height="30" as="geometry" />
        </mxCell>
        <mxCell id="E-zx71uZVMrBbEnguRiy-179" value="language_id" style="shape=partialRectangle;connectable=0;fillColor=none;top=0;left=0;bottom=0;right=0;align=left;spacingLeft=6;fontStyle=5;overflow=hidden;" vertex="1" parent="E-zx71uZVMrBbEnguRiy-177">
          <mxGeometry x="30" width="150" height="30" as="geometry" />
        </mxCell>
        <mxCell id="E-zx71uZVMrBbEnguRiy-180" value="" style="shape=partialRectangle;collapsible=0;dropTarget=0;pointerEvents=0;fillColor=none;top=0;left=0;bottom=0;right=0;points=[[0,0.5],[1,0.5]];portConstraint=eastwest;" vertex="1" parent="E-zx71uZVMrBbEnguRiy-176">
          <mxGeometry y="60" width="180" height="30" as="geometry" />
        </mxCell>
        <mxCell id="E-zx71uZVMrBbEnguRiy-181" value="" style="shape=partialRectangle;connectable=0;fillColor=none;top=0;left=0;bottom=0;right=0;editable=1;overflow=hidden;" vertex="1" parent="E-zx71uZVMrBbEnguRiy-180">
          <mxGeometry width="30" height="30" as="geometry" />
        </mxCell>
        <mxCell id="E-zx71uZVMrBbEnguRiy-182" value="language" style="shape=partialRectangle;connectable=0;fillColor=none;top=0;left=0;bottom=0;right=0;align=left;spacingLeft=6;overflow=hidden;" vertex="1" parent="E-zx71uZVMrBbEnguRiy-180">
          <mxGeometry x="30" width="150" height="30" as="geometry" />
        </mxCell>
        <mxCell id="E-zx71uZVMrBbEnguRiy-183" value="" style="shape=partialRectangle;collapsible=0;dropTarget=0;pointerEvents=0;fillColor=none;top=0;left=0;bottom=0;right=0;points=[[0,0.5],[1,0.5]];portConstraint=eastwest;" vertex="1" parent="E-zx71uZVMrBbEnguRiy-176">
          <mxGeometry y="90" width="180" height="30" as="geometry" />
        </mxCell>
        <mxCell id="E-zx71uZVMrBbEnguRiy-184" value="" style="shape=partialRectangle;connectable=0;fillColor=none;top=0;left=0;bottom=0;right=0;editable=1;overflow=hidden;" vertex="1" parent="E-zx71uZVMrBbEnguRiy-183">
          <mxGeometry width="30" height="30" as="geometry" />
        </mxCell>
        <mxCell id="E-zx71uZVMrBbEnguRiy-185" value="" style="shape=partialRectangle;connectable=0;fillColor=none;top=0;left=0;bottom=0;right=0;align=left;spacingLeft=6;overflow=hidden;" vertex="1" parent="E-zx71uZVMrBbEnguRiy-183">
          <mxGeometry x="30" width="150" height="30" as="geometry" />
        </mxCell>
        <mxCell id="E-zx71uZVMrBbEnguRiy-186" value="" style="shape=partialRectangle;collapsible=0;dropTarget=0;pointerEvents=0;fillColor=none;top=0;left=0;bottom=0;right=0;points=[[0,0.5],[1,0.5]];portConstraint=eastwest;" vertex="1" parent="E-zx71uZVMrBbEnguRiy-176">
          <mxGeometry y="120" width="180" height="30" as="geometry" />
        </mxCell>
        <mxCell id="E-zx71uZVMrBbEnguRiy-187" value="" style="shape=partialRectangle;connectable=0;fillColor=none;top=0;left=0;bottom=0;right=0;editable=1;overflow=hidden;" vertex="1" parent="E-zx71uZVMrBbEnguRiy-186">
          <mxGeometry width="30" height="30" as="geometry" />
        </mxCell>
        <mxCell id="E-zx71uZVMrBbEnguRiy-188" value="" style="shape=partialRectangle;connectable=0;fillColor=none;top=0;left=0;bottom=0;right=0;align=left;spacingLeft=6;overflow=hidden;" vertex="1" parent="E-zx71uZVMrBbEnguRiy-186">
          <mxGeometry x="30" width="150" height="30" as="geometry" />
        </mxCell>
        <mxCell id="E-zx71uZVMrBbEnguRiy-22" value="continents" style="shape=table;startSize=30;container=1;collapsible=1;childLayout=tableLayout;fixedRows=1;rowLines=0;fontStyle=1;align=center;resizeLast=1;" vertex="1" parent="1">
          <mxGeometry x="-330" y="310" width="180" height="150" as="geometry" />
        </mxCell>
        <mxCell id="E-zx71uZVMrBbEnguRiy-23" value="" style="shape=partialRectangle;collapsible=0;dropTarget=0;pointerEvents=0;fillColor=none;top=0;left=0;bottom=1;right=0;points=[[0,0.5],[1,0.5]];portConstraint=eastwest;" vertex="1" parent="E-zx71uZVMrBbEnguRiy-22">
          <mxGeometry y="30" width="180" height="30" as="geometry" />
        </mxCell>
        <mxCell id="E-zx71uZVMrBbEnguRiy-24" value="PK" style="shape=partialRectangle;connectable=0;fillColor=none;top=0;left=0;bottom=0;right=0;fontStyle=1;overflow=hidden;" vertex="1" parent="E-zx71uZVMrBbEnguRiy-23">
          <mxGeometry width="30" height="30" as="geometry" />
        </mxCell>
        <mxCell id="E-zx71uZVMrBbEnguRiy-25" value="continent_id" style="shape=partialRectangle;connectable=0;fillColor=none;top=0;left=0;bottom=0;right=0;align=left;spacingLeft=6;fontStyle=5;overflow=hidden;" vertex="1" parent="E-zx71uZVMrBbEnguRiy-23">
          <mxGeometry x="30" width="150" height="30" as="geometry" />
        </mxCell>
        <mxCell id="E-zx71uZVMrBbEnguRiy-26" value="" style="shape=partialRectangle;collapsible=0;dropTarget=0;pointerEvents=0;fillColor=none;top=0;left=0;bottom=0;right=0;points=[[0,0.5],[1,0.5]];portConstraint=eastwest;" vertex="1" parent="E-zx71uZVMrBbEnguRiy-22">
          <mxGeometry y="60" width="180" height="20" as="geometry" />
        </mxCell>
        <mxCell id="E-zx71uZVMrBbEnguRiy-27" value="" style="shape=partialRectangle;connectable=0;fillColor=none;top=0;left=0;bottom=0;right=0;editable=1;overflow=hidden;" vertex="1" parent="E-zx71uZVMrBbEnguRiy-26">
          <mxGeometry width="30" height="20" as="geometry" />
        </mxCell>
        <mxCell id="E-zx71uZVMrBbEnguRiy-28" value="name" style="shape=partialRectangle;connectable=0;fillColor=none;top=0;left=0;bottom=0;right=0;align=left;spacingLeft=6;overflow=hidden;" vertex="1" parent="E-zx71uZVMrBbEnguRiy-26">
          <mxGeometry x="30" width="150" height="20" as="geometry" />
        </mxCell>
        <mxCell id="E-zx71uZVMrBbEnguRiy-29" value="" style="shape=partialRectangle;collapsible=0;dropTarget=0;pointerEvents=0;fillColor=none;top=0;left=0;bottom=0;right=0;points=[[0,0.5],[1,0.5]];portConstraint=eastwest;" vertex="1" parent="E-zx71uZVMrBbEnguRiy-22">
          <mxGeometry y="80" width="180" height="30" as="geometry" />
        </mxCell>
        <mxCell id="E-zx71uZVMrBbEnguRiy-30" value="" style="shape=partialRectangle;connectable=0;fillColor=none;top=0;left=0;bottom=0;right=0;editable=1;overflow=hidden;" vertex="1" parent="E-zx71uZVMrBbEnguRiy-29">
          <mxGeometry width="30" height="30" as="geometry" />
        </mxCell>
        <mxCell id="E-zx71uZVMrBbEnguRiy-31" value="" style="shape=partialRectangle;connectable=0;fillColor=none;top=0;left=0;bottom=0;right=0;align=left;spacingLeft=6;overflow=hidden;" vertex="1" parent="E-zx71uZVMrBbEnguRiy-29">
          <mxGeometry x="30" width="150" height="30" as="geometry" />
        </mxCell>
        <mxCell id="E-zx71uZVMrBbEnguRiy-32" value="" style="shape=partialRectangle;collapsible=0;dropTarget=0;pointerEvents=0;fillColor=none;top=0;left=0;bottom=0;right=0;points=[[0,0.5],[1,0.5]];portConstraint=eastwest;" vertex="1" parent="E-zx71uZVMrBbEnguRiy-22">
          <mxGeometry y="110" width="180" height="30" as="geometry" />
        </mxCell>
        <mxCell id="E-zx71uZVMrBbEnguRiy-33" value="" style="shape=partialRectangle;connectable=0;fillColor=none;top=0;left=0;bottom=0;right=0;editable=1;overflow=hidden;" vertex="1" parent="E-zx71uZVMrBbEnguRiy-32">
          <mxGeometry width="30" height="30" as="geometry" />
        </mxCell>
        <mxCell id="E-zx71uZVMrBbEnguRiy-34" value="" style="shape=partialRectangle;connectable=0;fillColor=none;top=0;left=0;bottom=0;right=0;align=left;spacingLeft=6;overflow=hidden;" vertex="1" parent="E-zx71uZVMrBbEnguRiy-32">
          <mxGeometry x="30" width="150" height="30" as="geometry" />
        </mxCell>
      </root>
    </mxGraphModel>
  </diagram>
</mxfile>
